<?xml version="1.0" standalone="no"?>
<!DOCTYPE svg PUBLIC "-//W3C//DTD SVG 1.1//EN" "http://www.w3.org/Graphics/SVG/1.1/DTD/svg11.dtd" >
<svg xmlns="http://www.w3.org/2000/svg">
<metadata>
This is a custom SVG webfont generated by Font Squirrel.
Copyright   : Copyright c ScanDer Ltd 19932002 All rights reserved
Designer    : ProFonts Developers group
Foundry URL : httpwwwscanderhu
</metadata>
<defs>
<font id="FrutigerBlkCnPFLRegular" horiz-adv-x="1363" >
<font-face units-per-em="2048" ascent="1638" descent="-410" />
<missing-glyph horiz-adv-x="559" />
<glyph unicode=" "  horiz-adv-x="559" />
<glyph unicode="&#x09;" horiz-adv-x="559" />
<glyph unicode="&#xa0;" horiz-adv-x="559" />
<glyph unicode="!" horiz-adv-x="643" d="M236 1430h323l-41 -975h-242zM250 0v307h295v-307h-295z" />
<glyph unicode="&#x22;" horiz-adv-x="950" d="M180 1004v532h258v-532h-258zM627 1004v532h258v-532h-258z" />
<glyph unicode="#" horiz-adv-x="1062" d="M31 408v188h182l33 238h-156v188h182l58 408h188l-57 -408h203l57 408h188l-55 -408h180v-188h-207l-32 -238h180v-188h-207l-57 -408h-189l56 408h-203l-56 -408h-188l55 408h-155zM401 596h203l33 238h-203z" />
<glyph unicode="$" horiz-adv-x="1038" d="M66 1059q0 176 120 282q111 98 295 113v174h92v-174q195 -12 340 -59l-18 -254q-172 86 -322 86v-353q426 -92 426 -464q0 -193 -118 -308q-111 -109 -308 -127v-182h-92v182q-254 8 -383 58l23 272q172 -102 360 -102v397q-415 109 -415 459zM348 1069q0 -111 133 -170 v328q-133 -23 -133 -158zM573 203q143 33 144 190q0 141 -144 182v-372z" />
<glyph unicode="%" horiz-adv-x="1689" d="M94 1038.5q0 415.5 307.5 415.5t307.5 -415.5t-307.5 -415.5t-307.5 415.5zM307 1038.5q0 -108.5 8 -151.5q20 -100 86 -100.5t86 100.5q8 43 8.5 151.5t-8.5 151.5q-20 100 -85.5 100t-86.5 -100q-8 -43 -8 -151.5zM459 -68l647 1565h184l-647 -1565h-184zM1036 391 q0 416 307.5 416t307.5 -416t-307.5 -416t-307.5 416zM1249 391.5q0 -108.5 8 -151.5q20 -100 86 -100.5t87 100.5q8 43 8 151.5t-8 151.5q-20 100 -86 100t-87 -100q-8 -43 -8 -151.5z" />
<glyph unicode="&#x26;" horiz-adv-x="1394" d="M109 410q0 270 253 397q-158 156 -157 311q0 164 139 256q119 80 293 80q168 0 278 -76q129 -88 129 -248q0 -211 -256 -374l193 -240q63 98 63 275h283q0 -283 -172 -492l227 -299h-352l-82 111q-113 -135 -344 -136q-211 0 -348 111q-147 119 -147 324zM424 412 q0 -78 59.5 -140.5t137.5 -62.5q117 0 180 78l-281 327q-96 -104 -96 -202zM487 1118q0 -78 129 -207q154 123 154 219q0 127 -137 127q-66 0 -106 -36.5t-40 -102.5z" />
<glyph unicode="'" horiz-adv-x="460" d="M137 1004v532h258v-532h-258z" />
<glyph unicode="(" horiz-adv-x="606" d="M92 631q0 256 74 479q61 182 207 438h248q-121 -197 -187.5 -440.5t-66.5 -477t66.5 -477t187.5 -440.5h-248q-145 256 -207 439q-74 223 -74 479z" />
<glyph unicode=")" horiz-adv-x="608" d="M25 -287q121 197 187.5 440.5t66.5 477t-67 477.5t-187 440h247q145 -256 207 -438q74 -223 74 -479t-74 -479q-61 -182 -207 -439h-247z" />
<glyph unicode="*" horiz-adv-x="954" d="M145 1169l74 224l246 -131l-45 274h233l-43 -274l238 131l70 -224l-267 -47l197 -196l-197 -135l-116 245l-125 -245l-191 135l191 196z" />
<glyph unicode="+" horiz-adv-x="1165" d="M96 412v213h412v411h213v-411h412v-213h-412v-412h-213v412h-412z" />
<glyph unicode="," horiz-adv-x="491" d="M20 -225l99 532h307l-164 -532h-242z" />
<glyph unicode="-" horiz-adv-x="690" d="M86 463v250h510v-250h-510z" />
<glyph unicode="." horiz-adv-x="522" d="M119 0v307h295v-307h-295z" />
<glyph unicode="/" horiz-adv-x="602" d="M29 -25l336 1479h213l-336 -1479h-213z" />
<glyph unicode="0" horiz-adv-x="1077" d="M61 714.5q0 739.5 471.5 739.5t471.5 -739.5t-471.5 -739.5t-471.5 739.5zM377 715q0 -506 155.5 -506t155.5 506t-155.5 506t-155.5 -506z" />
<glyph unicode="1" horiz-adv-x="868" d="M102 1106l402 324h258v-1430h-324v1053l-184 -179z" />
<glyph unicode="2" horiz-adv-x="1013" d="M96 0v250l318 352q205 250 204 395q0 86 -53 138.5t-139 52.5q-131 0 -283 -113l-22 297q270 82 422 82q176 0 293.5 -113.5t117.5 -289.5q0 -324 -497 -801h512v-250h-873z" />
<glyph unicode="3" horiz-adv-x="1034" d="M80 37l14 262q207 -74 285 -74q100 0 170 45q78 53 78 150q0 143 -119 178q-49 16 -236 16v234q150 0 222 22q129 39 129 152q0 86 -66 137q-57 45 -147 45q-61 0 -144 -24l-137 -45l-16 254q231 66 424 65q176 0 292.5 -105.5t116.5 -279.5q0 -219 -284 -319v-5 q143 -18 222 -113t79 -243q0 -207 -185 -319q-154 -94 -375 -95q-61 0 -163 19q-109 20 -160 43z" />
<glyph unicode="4" horiz-adv-x="1083" d="M37 276v295l483 859h352v-920h156v-234h-156v-276h-307v276h-528zM258 510h320v584h-5z" />
<glyph unicode="5" horiz-adv-x="1007" d="M94 41l17 254q174 -70 266 -70q106 0 182 65.5t76 170.5q0 119 -86 186q-78 61 -199 62q-72 0 -225 -39v760h782v-242h-499v-266q78 8 122 8q217 0 332 -131q109 -123 109 -344q0 -217 -158 -353q-150 -127 -371 -127q-180 0 -348 66z" />
<glyph unicode="6" horiz-adv-x="1036" d="M63 662q0 330 113 534q145 258 449 258q129 0 305 -57l-19 -248q-150 63 -237 63q-283 0 -303 -419h4q102 123 243 122q184 0 291 -153q92 -135 92 -330q0 -199 -124.5 -328t-325.5 -129q-268 0 -391 222q-97 172 -97 465zM387 422q0 -219 145.5 -219t145.5 246 q0 225 -145.5 225t-145.5 -252z" />
<glyph unicode="7" horiz-adv-x="989" d="M102 1180v250h861v-283l-420 -1147h-353l457 1180h-545z" />
<glyph unicode="8" horiz-adv-x="1077" d="M55 375q0 135 71 232.5t200 127.5v4q-109 31 -174 138q-59 98 -60 217q0 172 139 270q123 90 301 90q172 0 295 -96q135 -102 136 -271q0 -104 -70 -198t-168 -125v-4q127 -27 207 -144q78 -109 78 -241q0 -197 -148 -303q-131 -96 -336 -97q-190 0 -325 103 q-146 113 -146 297zM371 387q0 -76 46 -130t120 -54q68 0 112.5 56t44.5 126q0 92 -49 154q-39 49 -129 98q-145 -84 -145 -250zM387 1069q0 -74 44 -134.5t116 -84.5q121 78 121 211q0 70 -40 118t-108 48q-59 0 -96 -48.5t-37 -109.5z" />
<glyph unicode="9" horiz-adv-x="1071" d="M63 997q0 199 125 328t326 129q268 0 391 -221q96 -172 96 -465q0 -330 -112 -535q-145 -258 -449 -258q-129 0 -305 58l19 248q150 -63 237 -64q283 0 303 420h-4q-102 -123 -244 -123q-184 0 -290 154q-93 134 -93 329zM387 981q0 -225 145.5 -225t145.5 252 q0 219 -145.5 219t-145.5 -246z" />
<glyph unicode=":" horiz-adv-x="485" d="M119 0v307h295v-307h-295zM119 760v307h295v-307h-295z" />
<glyph unicode=";" horiz-adv-x="483" d="M20 -225l99 532h307l-164 -532h-242zM119 760v307h295v-307h-295z" />
<glyph unicode="&#x3c;" horiz-adv-x="1173" d="M96 430v176l1037 447v-205l-762 -330l762 -330v-204z" />
<glyph unicode="=" horiz-adv-x="1167" d="M96 188v213h1037v-213h-1037zM96 635v213h1037v-213h-1037z" />
<glyph unicode="&#x3e;" horiz-adv-x="1132" d="M96 -16v204l762 330l-762 330v205l1037 -447v-176z" />
<glyph unicode="?" horiz-adv-x="925" d="M102 1395q150 59 332 59q199 0 318 -82q139 -94 139 -285q0 -121 -72 -241l-133 -189q-72 -109 -72 -200h-274v69q0 94 107.5 244t107.5 254q0 172 -199 172q-123 0 -241 -66zM328 0v307h295v-307h-295z" />
<glyph unicode="@" horiz-adv-x="1615" d="M80 715q0 319 233 532q227 207 551 207q289 0 484 -154q211 -166 211 -448q0 -213 -142.5 -365.5t-355.5 -152.5q-113 0 -139 100h-4q-70 -100 -201 -100q-133 0 -219 102.5t-86 237.5q0 190 106.5 310t294.5 120q123 0 211 -103l14 82h195l-59 -268q-39 -186 -39 -262 q0 -55 55 -55q109 0 164 129q41 94 41 219q0 223 -160 336q-137 96 -371 96q-240 0 -405.5 -163t-165.5 -400q0 -240 146.5 -401.5t383.5 -161.5q322 0 473 141h174q-215 -317 -647 -318q-319 0 -531 209t-212 531zM596 692q0 -86 43 -137q45 -57 129 -57q92 0 150 75 q53 68 53 164q0 203 -178 203q-90 0 -148 -82q-49 -72 -49 -166z" />
<glyph unicode="A" horiz-adv-x="1314" d="M12 0l475 1430h369l459 -1430h-344l-88 319h-449l-98 -319h-324zM496 561h321l-147 594h-4z" />
<glyph unicode="B" horiz-adv-x="1157" d="M135 0v1430h533q172 0 283.5 -94.5t111.5 -262.5q0 -119 -70 -213q-74 -100 -188 -115v-4q287 -57 287 -346q0 -186 -131 -295q-123 -100 -312 -100h-514zM459 242h102q207 0 207 184q0 188 -180 188h-129v-372zM459 848h82q88 0 143 45t55 131q0 80 -54 126t-138 46h-88 v-348z" />
<glyph unicode="C" horiz-adv-x="1124" d="M94 721q0 307 166 512q178 221 477 221q209 0 377 -70l-16 -278q-141 82 -291 82q-184 0 -285 -148q-84 -129 -84 -323q0 -186 92 -318q104 -150 283 -149q133 0 293 76l12 -299q-158 -51 -358 -52q-311 0 -496 222q-170 205 -170 524z" />
<glyph unicode="D" horiz-adv-x="1349" d="M135 1430h508q315 0 483 -209q156 -193 156 -519q0 -322 -181 -512t-501 -190h-465v1430zM471 250h107q184 0 274 139q78 119 78 313q0 477 -373 478h-86v-930z" />
<glyph unicode="E" horiz-adv-x="1019" d="M135 0v1430h826v-250h-502v-320h477v-250h-477v-360h526v-250h-850z" />
<glyph unicode="F" horiz-adv-x="946" d="M135 0v1430h793v-250h-469v-332h450v-250h-450v-598h-324z" />
<glyph unicode="G" horiz-adv-x="1316" d="M94 723q0 338 201 534.5t541 196.5q176 0 374 -57l-20 -281q-172 80 -328 80q-205 0 -319 -145q-104 -133 -105 -342q0 -201 86 -328q102 -147 293 -148q74 0 117 21v324h-189v241h504v-768q-166 -76 -473 -76q-328 0 -510 211q-172 201 -172 537z" />
<glyph unicode="H" horiz-adv-x="1261" d="M135 0v1430h336v-570h348v570h336v-1430h-336v594h-348v-594h-336z" />
<glyph unicode="I" horiz-adv-x="577" d="M135 0v1430h336v-1430h-336z" />
<glyph unicode="J" horiz-adv-x="759" d="M35 16l12 273q76 -27 117 -27q162 0 162 205v963h336v-963q0 -492 -402 -492q-121 0 -225 41z" />
<glyph unicode="K" horiz-adv-x="1277" d="M135 0v1430h336v-590h4l352 590h377l-442 -670l477 -760h-401l-363 655h-4v-655h-336z" />
<glyph unicode="L" horiz-adv-x="954" d="M135 0v1430h336v-1172h473v-258h-809z" />
<glyph unicode="M" horiz-adv-x="1716" d="M135 0v1430h506l231 -920h5l249 920h484v-1430h-307v1130h-5l-321 -1130h-221l-310 1130h-4v-1130h-307z" />
<glyph unicode="N" horiz-adv-x="1343" d="M129 0v1430h393l416 -992h4v992h295v-1430h-397l-412 1034h-4v-1034h-295z" />
<glyph unicode="O" horiz-adv-x="1376" d="M94 714.5q0 317.5 142 516.5q160 223 465 223t466 -223q141 -199 141.5 -516.5t-141.5 -515.5q-162 -223 -467 -223.5t-464 223.5q-142 198 -142 515.5zM438 714.5q0 -497.5 262 -497.5q264 0 264.5 497.5t-264.5 497.5q-262 0 -262 -497.5z" />
<glyph unicode="P" horiz-adv-x="1093" d="M135 0v1430h457q489 0 489 -455q0 -209 -119.5 -331t-328.5 -122h-162v-522h-336zM459 772h106q86 0 133 57.5t47 147.5q0 203 -198 203h-88v-408z" />
<glyph unicode="Q" horiz-adv-x="1376" d="M94 715q0 317 142 516q160 223 465 223t466 -223q141 -199 142 -516q0 -209 -66 -375q-78 -199 -233 -291l280 -330h-372l-183 256q-328 0 -491 211q-150 191 -150 529zM438 714.5q0 -497.5 262 -497.5q264 0 264.5 497.5t-264.5 497.5q-262 0 -262 -497.5z" />
<glyph unicode="R" horiz-adv-x="1177" d="M135 0v1430h524q193 0 308 -87q129 -96 129 -282q0 -293 -285 -350v-4q86 -10 135 -84q27 -41 64 -156l147 -467h-352l-111 383q-35 123 -67 156q-41 39 -145 39h-11v-578h-336zM459 819h104q86 0 141.5 51.5t55.5 137.5q0 180 -199 180h-102v-369z" />
<glyph unicode="S" horiz-adv-x="1038" d="M96 1047q0 197 154 309q135 98 342 98q113 0 336 -49l-15 -266q-145 74 -282 73q-190 0 -191 -155q0 -100 146 -170q233 -111 272 -142q145 -119 146 -335q0 -205 -152 -324q-137 -111 -348 -111q-188 0 -385 60l18 278q145 -57 152 -59q86 -29 162 -29q86 0 143 41 q66 47 65 129q0 109 -145 178q-242 115 -272 140q-146 115 -146 334z" />
<glyph unicode="T" horiz-adv-x="1028" d="M33 1171v259h958v-259h-311v-1171h-336v1171h-311z" />
<glyph unicode="U" horiz-adv-x="1251" d="M121 518v912h336v-965q0 -231 188.5 -231.5t188.5 231.5v965h335v-912q0 -254 -136 -398.5t-388 -144.5t-388 144.5t-136 398.5z" />
<glyph unicode="V" horiz-adv-x="1253" d="M16 1430h361l252 -1043h4l258 1043h344l-432 -1430h-361z" />
<glyph unicode="W" horiz-adv-x="1746" d="M12 1430h324l172 -1016h4l170 1016h393l174 -1016h4l185 1016h295l-281 -1430h-393l-185 1110h-4l-178 -1110h-393z" />
<glyph unicode="X" horiz-adv-x="1243" d="M14 0l414 758l-367 672h377l195 -449l215 449h360l-374 -672l403 -758h-377l-227 512l-258 -512h-361z" />
<glyph unicode="Y" horiz-adv-x="1222" d="M4 1430h385l229 -553l213 553h377l-434 -889v-541h-336v547z" />
<glyph unicode="Z" horiz-adv-x="1054" d="M61 0v274l555 897h-540v259h917v-263l-555 -909h563v-258h-940z" />
<glyph unicode="[" horiz-adv-x="544" d="M147 -287v1835h437v-205h-187v-1425h187v-205h-437z" />
<glyph unicode="\" horiz-adv-x="581" d="M29 1454h213l336 -1479h-213z" />
<glyph unicode="]" horiz-adv-x="595" d="M61 -82h187v1425h-187v205h437v-1835h-437v205z" />
<glyph unicode="^" horiz-adv-x="1140" d="M135 641l381 789h197l381 -789h-213l-267 576l-266 -576h-213z" />
<glyph unicode="_" horiz-adv-x="956" d="M0 -154h1024v-102h-1024v102z" />
<glyph unicode="`" horiz-adv-x="448" d="M-6 1487h282l111 -299h-188z" />
<glyph unicode="a" horiz-adv-x="1083" d="M70 307q0 231 217 311q131 47 409 48q0 205 -198 204q-139 0 -297 -94l-15 240q213 68 344 67q233 0 340 -79q121 -92 121 -314q0 -51 -2 -229q-1 -72 -1 -130t1 -102q2 -127 10 -229h-294l-9 147h-4q-16 -72 -121 -120q-90 -43 -172 -43q-147 0 -238 88t-91 235z M365 328q0 -139 139 -140q100 0 151 84q41 70 41 181v61q-331 0 -331 -186z" />
<glyph unicode="b" horiz-adv-x="1138" d="M104 0q8 96 9 240v1296h323v-627h4q70 174 275 174q201 0 297 -170q78 -137 78 -354q0 -223 -76 -377q-98 -199 -299 -198q-199 0 -291 186h-4q0 -90 -8 -170h-308zM436 532q0 -117 29 -198q41 -117 133 -117q156 0 156 315q0 143 -17 207q-35 123 -139 123 q-162 0 -162 -330z" />
<glyph unicode="c" horiz-adv-x="909" d="M70 522q0 252 139 406.5t389 154.5q66 0 258 -51l-16 -244q-117 45 -189 46q-127 0 -192 -97q-53 -82 -53 -215q0 -131 65 -211q70 -86 197 -86q66 0 188 47l10 -243q-172 -45 -293 -45q-236 0 -372 153q-131 147 -131 385z" />
<glyph unicode="d" horiz-adv-x="1165" d="M86 559q0 217 78 354q96 170 297 170q205 0 274 -174h4v627h324v-1296q0 -143 8 -240h-307q-8 80 -8 170h-4q-92 -186 -291 -186q-201 0 -299 198q-76 154 -76 377zM422 532q0 -315 156 -315q92 0 133 117q29 82 28 198q0 330 -161 330q-104 0 -140 -123 q-16 -64 -16 -207z" />
<glyph unicode="e" horiz-adv-x="1071" d="M86 537q0 225 121 378q133 168 352 168q272 0 381 -190q82 -143 82 -444h-629q0 -115 74 -179.5t190 -64.5q145 0 301 84l7 -244q-166 -61 -338 -61q-262 0 -401.5 145.5t-139.5 407.5zM393 625h334q0 262 -168 262t-166 -262z" />
<glyph unicode="f" horiz-adv-x="768" d="M18 840v227h187q0 270 35 348q66 145 299 146q76 0 211 -25l-9 -225q-37 16 -84 16q-131 0 -131 -153v-54q2 -35 2 -53h195v-227h-195v-840h-323v840h-187z" />
<glyph unicode="g" horiz-adv-x="1179" d="M86 532q0 223 78 367q96 184 301 184q207 0 287 -186h4l8 170h307q-12 -139 -14 -311q0 -117 2 -316q4 -225 4 -311q0 -584 -543 -584q-174 0 -385 64l10 264q180 -94 336 -94q176 0 232 127q35 80 35 282h-5q-29 -86 -108.5 -137t-171.5 -51q-201 0 -299 174 q-78 139 -78 358zM422 535q0 -307 156 -308q162 0 161 308q0 115 -28 196q-41 119 -131 119q-158 0 -158 -315z" />
<glyph unicode="h" horiz-adv-x="1091" d="M113 0v1536h323v-627h4q27 84 107 131q72 43 166 43q313 0 313 -385v-698h-324v657q0 168 -124 168q-141 0 -142 -227v-598h-323z" />
<glyph unicode="i" horiz-adv-x="536" d="M123 0v1067h323v-1067h-323zM123 1249v287h323v-287h-323z" />
<glyph unicode="j" horiz-adv-x="532" d="M-51 -424l8 213q23 -10 55 -10q111 0 111 151v1137h323v-1128q0 -393 -311 -394q-116 0 -186 31zM123 1249v287h323v-287h-323z" />
<glyph unicode="k" horiz-adv-x="1079" d="M123 0v1536h323v-901h5l270 432h336l-334 -489l356 -578h-360l-268 506h-5v-506h-323z" />
<glyph unicode="l" horiz-adv-x="544" d="M123 0v1536h323v-1536h-323z" />
<glyph unicode="m" horiz-adv-x="1689" d="M104 1067h295q8 -94 9 -178h4q82 195 301 194q201 0 276 -178q84 178 293 178q313 0 313 -385v-698h-323v657q0 168 -123 168q-133 0 -133 -149v-676h-324v657q0 168 -112 168q-143 0 -144 -227v-598h-323v844q-1 149 -9 223z" />
<glyph unicode="n" horiz-adv-x="1120" d="M104 1067h295q8 -94 9 -178h4q82 195 301 194q313 0 313 -385v-698h-324v657q0 168 -124 168q-141 0 -142 -227v-598h-323v844q-1 149 -9 223z" />
<glyph unicode="o" horiz-adv-x="1161" d="M86 537q0 244 127 391q133 156 374.5 155.5t375.5 -155.5q127 -147 127 -391q0 -246 -125 -396q-135 -158 -377 -157.5t-377 157.5q-125 150 -125 396zM422 537q0 -332 166 -332t166 332q0 326 -166 326t-166 -326z" />
<glyph unicode="p" horiz-adv-x="1153" d="M104 1067h308q8 -80 8 -170h4q92 186 291 186q201 0 299 -198q76 -154 76 -377q0 -217 -78 -354q-96 -170 -297 -170q-205 0 -275 174h-4v-600h-323v1269q-1 144 -9 240zM436 535q0 -330 162 -330q104 0 139 123q16 63 17 207q0 315 -156 315q-92 0 -133 -117 q-29 -81 -29 -198z" />
<glyph unicode="q" horiz-adv-x="1179" d="M86 508q0 223 76 377q98 199 299 198q199 0 291 -186h4q0 90 8 170h307q-8 -96 -8 -240v-1269h-324v600h-4q-70 -174 -274 -174q-201 0 -297 170q-78 137 -78 354zM422 535q0 -143 16 -207q35 -123 140 -123q162 0 161 330q0 117 -28 198q-41 117 -133 117 q-156 0 -156 -315z" />
<glyph unicode="r" horiz-adv-x="792" d="M104 1067h295l9 -193h4q76 133 134 171t210 38v-299q-51 12 -109 13q-129 0 -178 -105q-33 -72 -33 -215v-477h-323v844q-1 149 -9 223z" />
<glyph unicode="s" horiz-adv-x="866" d="M59 764q0 154 127 242q111 78 273 77q172 0 297 -43l-8 -241q-141 57 -261 57q-121 0 -120 -78q0 -68 116 -112q172 -66 213 -97q117 -86 117 -256q0 -168 -117 -254q-102 -76 -276 -75q-209 0 -350 51l8 250q123 -74 266 -74q162 0 162 100q0 39 -117 82 q-152 55 -213 107q-117 96 -117 264z" />
<glyph unicode="t" horiz-adv-x="792" d="M29 840v227h184v219l315 100v-319h209v-227h-209v-490q0 -133 109 -133q55 0 106 23v-228q-78 -29 -225 -28q-150 0 -231.5 81.5t-81.5 233.5v541h-176z" />
<glyph unicode="u" horiz-adv-x="1130" d="M113 369v698h323v-657q0 -168 125 -168q141 0 141 227v598h324v-844q0 -150 8 -223h-295q-8 94 -8 178h-4q-82 -195 -301 -194q-313 0 -313 385z" />
<glyph unicode="v" horiz-adv-x="1064" d="M8 1067h336l197 -760h4l194 760h316l-334 -1067h-381z" />
<glyph unicode="w" horiz-adv-x="1648" d="M10 1067h324l155 -760h5l151 760h369l145 -760h4l150 760h307l-285 -1067h-344l-174 780h-4l-164 -780h-352z" />
<glyph unicode="x" horiz-adv-x="1085" d="M10 0l334 569l-303 498h360l150 -319l145 319h336l-303 -498l324 -569h-361l-166 358l-180 -358h-336z" />
<glyph unicode="y" horiz-adv-x="1093" d="M10 1067h336l199 -723h4l188 723h316l-377 -1165q-53 -166 -127 -248q-94 -109 -246 -109q-104 0 -194 27l10 240q41 -25 102 -25q59 0 111.5 62.5t52.5 123.5q0 14 -4 27z" />
<glyph unicode="z" horiz-adv-x="878" d="M55 0v266l408 559h-395v242h739v-264l-399 -561h409v-242h-762z" />
<glyph unicode="{" horiz-adv-x="616" d="M37 543v176q104 0 143 78q31 59 31 188q0 31 -2 94.5t-2 96.5q0 176 49 258q70 115 252 114h154v-164h-93q-106 0 -106 -172q0 -37 5 -124t5 -132q0 -301 -235 -323v-4q236 -20 235 -322q0 -45 -5 -133t-5 -125q0 -172 106 -172h93v-164h-154q-182 0 -252 117 q-51 84 -51 262q0 31 2 92.5t2 89.5q0 131 -29 191q-39 78 -143 78z" />
<glyph unicode="|" horiz-adv-x="432" d="M121 -512v2048h213v-2048h-213z" />
<glyph unicode="}" horiz-adv-x="681" d="M20 -123h93q106 0 106 172q0 37 -5 125t-5 133q0 301 235 322v4q-236 23 -235 323q0 45 5 132.5t5 123.5q0 172 -106 172h-93v164h154q182 0 252 -114q49 -82 49 -258q0 -33 -2 -96.5t-2 -94.5q0 -129 31 -188q39 -78 143 -78v-176q-104 0 -143 -78q-29 -59 -29 -191 q0 -29 2 -90t2 -92q0 -178 -51 -262q-70 -117 -252 -117h-154v164z" />
<glyph unicode="~" horiz-adv-x="1169" d="M141 516q94 180 248 180q100 0 241.5 -71.5t213 -71.5t170.5 145l73 -178q-106 -180 -235 -180q-98 0 -237.5 71.5t-223.5 71.5q-109 0 -176 -145z" />
<glyph unicode="&#xa1;" horiz-adv-x="626" d="M236 -362l40 974h242l41 -974h-323zM250 760v307h295v-307h-295z" />
<glyph unicode="&#xa2;" horiz-adv-x="989" d="M135 518q0 268 145.5 416.5t411.5 148.5l35 234h111l-35 -250q29 -8 119 -37l-17 -246q-82 31 -137 41l-88 -600q25 -6 53 -6q68 0 187 47l10 -246q-156 -43 -287 -45l-37 -251h-110l39 260q-193 33 -302 188q-98 143 -98 346zM471 518q0 -170 102 -248l82 555 q-184 -41 -184 -307z" />
<glyph unicode="&#xa3;" horiz-adv-x="1011" d="M82 0v242h143v422h-143v184h143q0 309 84 438q106 168 404 168q133 0 264 -35l-12 -241q-115 43 -203 43q-162 0 -207 -117q-23 -61 -23 -256h312v-184h-312v-422h451v-242h-901z" />
<glyph unicode="&#xa5;" horiz-adv-x="1062" d="M20 1430h308l211 -599h4l194 599h307l-262 -639h189v-213h-277l-14 -37v-99h291v-213h-291v-229h-295v229h-291v213h291v105l-14 31h-277v213h191z" />
<glyph unicode="&#xa7;" horiz-adv-x="1013" d="M109 610q0 78 51 164q55 94 127 113q-145 104 -146 258q0 150 129 235q111 74 269 74q184 0 338 -57l-23 -236q-158 72 -264 72q-141 0 -141 -107q0 -66 131 -133q203 -106 243 -139q131 -102 131 -254q0 -145 -159 -283q57 -35 91 -101t34 -136q0 -170 -138 -264 q-121 -84 -299 -84q-164 0 -360 75l24 242q205 -90 304 -90q59 0 102 31q51 33 51 90q0 76 -129 149q-225 133 -237 144q-129 100 -129 237zM375 666q0 -129 256 -248q57 57 57 137q0 125 -252 246q-61 -61 -61 -135z" />
<glyph unicode="&#xa8;" horiz-adv-x="585" d="M-70 1239v258h242v-258h-242zM283 1239v258h241v-258h-241z" />
<glyph unicode="&#xa9;" horiz-adv-x="1605" d="M80 715q0 305 217 522t522 217t522.5 -217t217.5 -522t-217.5 -522.5t-522.5 -217.5t-522 217.5t-217 522.5zM293 714.5q0 -235.5 146.5 -399t379.5 -163.5q231 0 381 167q145 162 145.5 395.5t-147 398.5t-379 165t-383.5 -168q-143 -160 -143 -395.5zM438 721 q0 186 108.5 311t293.5 125q141 0 236 -83t116 -224h-164q-12 68 -64.5 105.5t-123.5 37.5q-109 0 -168 -84q-49 -72 -49 -186q0 -106 53 -186q61 -88 164 -88q174 0 188 147h164q-20 -139 -116.5 -225t-235.5 -86q-180 0 -291 127t-111 309z" />
<glyph unicode="&#xaa;" horiz-adv-x="749" d="M51 995q0 137 148 185q82 25 262 24q0 115 -125 115q-92 0 -193 -57l-10 153q150 39 223 39q201 0 269 -104q42 -65 41 -209v-39q-6 -130 -6 -205q0 -60 4 -86h-197l-6 86h-4q-10 -41 -82 -70q-57 -25 -109 -24q-92 0 -153.5 51t-61.5 141zM248 1001q0 -76 90 -75 q123 0 123 151v35q-213 0 -213 -111z" />
<glyph unicode="&#xab;" horiz-adv-x="1003" d="M74 532l202 424h256l-184 -424l184 -423h-256zM494 532l202 424h256l-184 -424l184 -423h-256z" />
<glyph unicode="&#xac;" horiz-adv-x="1212" d="M96 635v213h1037v-627h-213v414h-824z" />
<glyph unicode="&#xad;" horiz-adv-x="690" d="M86 463v250h510v-250h-510z" />
<glyph unicode="&#xae;" horiz-adv-x="1605" d="M80 715q0 305 217 522t522 217t522.5 -217t217.5 -522t-217.5 -522.5t-522.5 -217.5t-522 217.5t-217 522.5zM293 714.5q0 -235.5 146.5 -399t379.5 -163.5q231 0 381 167q145 162 145.5 395.5t-147 398.5t-379 165t-383.5 -168q-143 -160 -143 -395.5zM535 324v792h284 q303 0 303 -237q0 -193 -188 -211l201 -344h-189l-176 335h-72v-335h-163zM698 795h123q137 0 137 100q0 86 -155 86h-105v-186z" />
<glyph unicode="&#xb0;" horiz-adv-x="788" d="M78 1122q0 135 98 233.5t233.5 98.5t233.5 -98.5t98 -233.5t-98 -233t-233.5 -98t-233.5 98t-98 233zM242 1122.5q0 -69.5 49 -119t118.5 -49.5t119 49.5t49.5 119t-49.5 118.5t-119 49t-118.5 -49t-49 -118.5z" />
<glyph unicode="&#xb1;" horiz-adv-x="1175" d="M96 0v213h1037v-213h-1037zM96 553v213h412v270h213v-270h412v-213h-412v-270h-213v270h-412z" />
<glyph unicode="&#xb4;" horiz-adv-x="487" d="M68 1188l110 299h283l-205 -299h-188z" />
<glyph unicode="&#xb5;" horiz-adv-x="1112" d="M113 -442v1509h323v-657q0 -168 125 -168q141 0 141 227v598h324v-844q0 -150 8 -223h-295q-8 94 -8 178h-4q-80 -195 -227 -194q-68 0 -88 45h-4v-471h-295z" />
<glyph unicode="&#x3bc;" horiz-adv-x="1112" d="M113 -442v1509h323v-657q0 -168 125 -168q141 0 141 227v598h324v-844q0 -150 8 -223h-295q-8 94 -8 178h-4q-80 -195 -227 -194q-68 0 -88 45h-4v-471h-295z" />
<glyph unicode="&#xb6;" horiz-adv-x="1202" d="M86 1057q0 221 143 307q111 66 349 66h518v-1684h-213v1520h-217v-1520h-213v952q-158 0 -262.5 100.5t-104.5 258.5z" />
<glyph unicode="&#xb7;" horiz-adv-x="509" d="M109 569.5q0 69.5 44 113.5t113.5 44t113.5 -44t44 -113.5t-44 -113.5t-113.5 -44t-113.5 44t-44 113.5z" />
<glyph unicode="&#x2219;" horiz-adv-x="509" d="M109 569.5q0 69.5 44 113.5t113.5 44t113.5 -44t44 -113.5t-44 -113.5t-113.5 -44t-113.5 44t-44 113.5z" />
<glyph unicode="&#xb8;" horiz-adv-x="434" d="M0 -412l39 95q76 -35 145 -35q104 0 105 86q0 31 -28 49t-60 18q-43 0 -76 -16l-45 37l110 192h111l-78 -129q31 10 70 11q76 0 124 -45.5t48 -118.5q0 -88 -82 -142q-70 -45 -164 -45q-158 0 -219 43z" />
<glyph unicode="&#xba;" horiz-adv-x="763" d="M51 1135q0 147 89 233t238.5 86t239 -85t89.5 -234q0 -154 -87.5 -243t-240.5 -89q-152 0 -240 89t-88 243zM272 1135q0 -197 106.5 -197t106.5 197q0 184 -106.5 184t-106.5 -184z" />
<glyph unicode="&#xbb;" horiz-adv-x="1062" d="M113 109l184 423l-184 424h256l202 -424l-202 -423h-256zM532 109l185 423l-185 424h256l203 -424l-203 -423h-256z" />
<glyph unicode="&#xbf;" horiz-adv-x="788" d="M57 -20q0 121 72 241l133 189q72 109 72 200h274v-69q0 -94 -107.5 -244t-107.5 -254q0 -172 199 -172q123 0 242 66l12 -265q-150 -59 -332 -59q-199 0 -317 82q-140 95 -140 285zM326 760v307h295v-307h-295z" />
<glyph unicode="&#xc0;" horiz-adv-x="1333" d="M12 0l475 1430h369l459 -1430h-344l-88 319h-449l-98 -319h-324zM430 1819h283l110 -299h-188zM496 561h321l-147 594h-4z" />
<glyph unicode="&#xc1;" horiz-adv-x="1333" d="M12 0l475 1430h369l459 -1430h-344l-88 319h-449l-98 -319h-324zM496 561h321l-147 594h-4zM504 1520l110 299h283l-205 -299h-188z" />
<glyph unicode="&#xc2;" horiz-adv-x="1333" d="M12 0l475 1430h369l459 -1430h-344l-88 319h-449l-98 -319h-324zM358 1520l158 299h295l158 -299h-205l-100 176l-101 -176h-205zM496 561h321l-147 594h-4z" />
<glyph unicode="&#xc3;" horiz-adv-x="1325" d="M12 0l475 1430h369l459 -1430h-344l-88 319h-449l-98 -319h-324zM342 1548q6 96 51 166q55 84 144 84q57 0 138 -37t103 -37q45 0 56 74h151q0 -96 -47 -168q-55 -82 -147 -82q-51 0 -135.5 37t-106.5 37q-55 0 -55 -74h-152zM496 561h321l-147 594h-4z" />
<glyph unicode="&#xc4;" horiz-adv-x="1325" d="M12 0l475 1430h369l459 -1430h-344l-88 319h-449l-98 -319h-324zM367 1556v259h241v-259h-241zM496 561h321l-147 594h-4zM719 1556v259h242v-259h-242z" />
<glyph unicode="&#xc5;" horiz-adv-x="1306" d="M12 0l475 1430h369l459 -1430h-344l-88 319h-449l-98 -319h-324zM436 1716q0 94 66.5 161t161 67t161 -67t66.5 -161t-66.5 -160.5t-161 -66.5t-161 66.5t-66.5 160.5zM496 561h321l-147 594h-4zM547 1716q0 -47 34.5 -82t82 -35t82 35t34.5 82t-34.5 82t-82 35t-82 -35 t-34.5 -82z" />
<glyph unicode="&#xc6;" horiz-adv-x="1718" d="M12 0l654 1430h1001v-250h-467v-320h438v-250h-438v-360h488v-250h-803v319h-387l-133 -319h-353zM598 561h287v647h-4z" />
<glyph unicode="&#xc7;" horiz-adv-x="1124" d="M94 721q0 307 166 512q178 221 477 221q207 0 377 -70l-16 -278q-143 82 -291 82q-184 0 -285 -148q-84 -129 -84 -323q0 -186 92 -318q104 -150 283 -149q127 0 293 76l12 -299q-158 -51 -385 -52l-55 -90q31 10 70 11q76 0 124 -45.5t48 -118.5q0 -88 -82 -142 q-70 -45 -164 -45q-154 0 -219 43l39 95q72 -35 145 -35q104 0 104 86q0 31 -27.5 49t-60.5 18q-47 0 -75 -16l-45 37l96 166q-262 47 -406 260q-131 197 -131 473z" />
<glyph unicode="&#xc8;" horiz-adv-x="999" d="M135 0v1430h826v-250h-502v-320h477v-250h-477v-360h526v-250h-850zM299 1819h283l110 -299h-188z" />
<glyph unicode="&#xc9;" horiz-adv-x="1003" d="M135 0v1430h826v-250h-502v-320h477v-250h-477v-360h526v-250h-850zM373 1520l110 299h283l-205 -299h-188z" />
<glyph unicode="&#xca;" horiz-adv-x="1005" d="M135 0v1430h826v-250h-502v-320h477v-250h-477v-360h526v-250h-850zM227 1520l158 299h295l158 -299h-205l-101 176l-100 -176h-205z" />
<glyph unicode="&#xcb;" horiz-adv-x="1001" d="M135 0v1430h826v-250h-502v-320h477v-250h-477v-360h526v-250h-850zM236 1556v259h241v-259h-241zM588 1556v259h241v-259h-241z" />
<glyph unicode="&#xcc;" horiz-adv-x="559" d="M70 1819h282l111 -299h-189zM135 0v1430h336v-1430h-336z" />
<glyph unicode="&#xcd;" horiz-adv-x="561" d="M135 0v1430h336v-1430h-336zM143 1520l111 299h283l-205 -299h-189z" />
<glyph unicode="&#xce;" horiz-adv-x="567" d="M-2 1520l158 299h295l157 -299h-205l-100 176l-100 -176h-205zM135 0v1430h336v-1430h-336z" />
<glyph unicode="&#xcf;" horiz-adv-x="565" d="M6 1556v259h242v-259h-242zM135 0v1430h336v-1430h-336zM358 1556v259h242v-259h-242z" />
<glyph unicode="&#xd0;" horiz-adv-x="1349" d="M0 848h135v582h508q315 0 483 -209q156 -193 156 -519q0 -322 -181 -512t-501 -190h-465v614h-135v234zM471 250h107q184 0 274 139q78 119 78 313q0 477 -373 478h-86v-332h209v-234h-209v-364z" />
<glyph unicode="&#xd1;" horiz-adv-x="1318" d="M129 0v1430h393l416 -992h4v992h295v-1430h-397l-412 1034h-4v-1034h-295zM362 1548q6 96 52 166q55 84 143 84q57 0 138 -37t104 -37q45 0 55 74h152q0 -96 -48 -168q-55 -82 -147 -82q-51 0 -135 37t-107 37q-55 0 -55 -74h-152z" />
<glyph unicode="&#xd2;" d="M94 714.5q0 317.5 142 516.5q160 223 465 223t466 -223q141 -199 141.5 -516.5t-141.5 -515.5q-162 -223 -467 -223.5t-464 223.5q-142 198 -142 515.5zM438 714.5q0 -497.5 262 -497.5q264 0 264.5 497.5t-264.5 497.5q-262 0 -262 -497.5zM469 1819h283l110 -299h-188z " />
<glyph unicode="&#xd3;" d="M94 714.5q0 317.5 142 516.5q160 223 465 223t466 -223q141 -199 141.5 -516.5t-141.5 -515.5q-162 -223 -467 -223.5t-464 223.5q-142 198 -142 515.5zM438 714.5q0 -497.5 262 -497.5q264 0 264.5 497.5t-264.5 497.5q-262 0 -262 -497.5zM543 1520l110 299h283 l-205 -299h-188z" />
<glyph unicode="&#xd4;" d="M94 714.5q0 317.5 142 516.5q160 223 465 223t466 -223q141 -199 141.5 -516.5t-141.5 -515.5q-162 -223 -467 -223.5t-464 223.5q-142 198 -142 515.5zM373 1516l110 299h283l-205 -299h-188zM438 714.5q0 -497.5 262 -497.5q264 0 264.5 497.5t-264.5 497.5 q-262 0 -262 -497.5zM725 1516l111 299h282l-205 -299h-188z" />
<glyph unicode="&#xd5;" d="M94 714.5q0 317.5 142 516.5q160 223 465 223t466 -223q141 -199 141.5 -516.5t-141.5 -515.5q-162 -223 -467 -223.5t-464 223.5q-142 198 -142 515.5zM373 1516l110 299h283l-205 -299h-188zM438 714.5q0 -497.5 262 -497.5q264 0 264.5 497.5t-264.5 497.5 q-262 0 -262 -497.5zM725 1516l111 299h282l-205 -299h-188z" />
<glyph unicode="&#xd6;" d="M94 714.5q0 317.5 142 516.5q160 223 465 223t466 -223q141 -199 141.5 -516.5t-141.5 -515.5q-162 -223 -467 -223.5t-464 223.5q-142 198 -142 515.5zM406 1556v259h241v-259h-241zM438 714.5q0 -497.5 262 -497.5q264 0 264.5 497.5t-264.5 497.5q-262 0 -262 -497.5z M758 1556v259h241v-259h-241z" />
<glyph unicode="&#xd8;" horiz-adv-x="1372" d="M78 29l147 186q-131 193 -131 500q0 319 142 516q160 223 464 223q246 0 398 -145l133 166l94 -74l-147 -187q131 -193 131 -499q0 -317 -142 -516q-162 -223 -467 -224q-246 0 -395 146l-133 -166zM438 715q0 -113 17 -211l450 561q-63 147 -205 147q-262 1 -262 -497z M498 362q66 -145 202 -145q264 0 265 498q0 115 -19 211z" />
<glyph unicode="&#xd9;" horiz-adv-x="1236" d="M121 518v912h336v-965q0 -231 188.5 -231.5t188.5 231.5v965h335v-912q0 -254 -136 -398.5t-388 -144.5t-388 144.5t-136 398.5zM412 1819h282l111 -299h-189z" />
<glyph unicode="&#xda;" horiz-adv-x="1236" d="M121 518v912h336v-965q0 -231 188.5 -231.5t188.5 231.5v965h335v-912q0 -254 -136 -398.5t-388 -144.5t-388 144.5t-136 398.5zM485 1520l111 299h283l-205 -299h-189z" />
<glyph unicode="&#xdb;" horiz-adv-x="1245" d="M121 518v912h336v-965q0 -231 188.5 -231.5t188.5 231.5v965h335v-912q0 -254 -136 -398.5t-388 -144.5t-388 144.5t-136 398.5zM311 1516l111 299h283l-205 -299h-189zM664 1516l110 299h283l-205 -299h-188z" />
<glyph unicode="&#xdc;" horiz-adv-x="1236" d="M121 518v912h336v-965q0 -231 188.5 -231.5t188.5 231.5v965h335v-912q0 -254 -136 -398.5t-388 -144.5t-388 144.5t-136 398.5zM348 1556v259h242v-259h-242zM700 1556v259h242v-259h-242z" />
<glyph unicode="&#xdd;" horiz-adv-x="1191" d="M4 1430h385l229 -553l213 553h377l-434 -889v-541h-336v547zM446 1520l111 299h283l-205 -299h-189z" />
<glyph unicode="&#xde;" horiz-adv-x="1097" d="M135 0v1430h336v-173q299 0 430 -75q180 -102 180 -379q0 -209 -119.5 -331t-328.5 -122h-162v-350h-336zM459 600h106q86 0 133 57.5t47 147.5q0 203 -198 203h-88v-408z" />
<glyph unicode="&#xdf;" horiz-adv-x="1165" d="M123 1104q0 215 129 336t346 121q195 0 317 -99q129 -109 129 -297q0 -131 -63 -229q-72 -111 -195 -123v-4q303 -41 304 -389q0 -195 -110 -315.5t-304 -120.5q-84 0 -144 16l13 233q20 -16 61 -16q160 0 160 232q0 127 -45 178t-168 55v233h3q187 0 187 218 q0 207 -145 206q-106 0 -137 -104q-14 -49 -15 -191v-1044h-323v1104z" />
<glyph unicode="&#xe0;" horiz-adv-x="1064" d="M70 307q0 231 217 311q131 47 409 48q0 205 -198 204q-139 0 -297 -94l-15 240q213 68 344 67q233 0 340 -79q121 -92 121 -314q0 -51 -2 -229q-1 -72 -1 -130t1 -102q2 -127 10 -229h-294l-9 147h-4q-16 -72 -121 -120q-90 -43 -172 -43q-147 0 -238 88t-91 235z M317 1487h283l111 -299h-189zM365 328q0 -139 139 -140q100 0 151 84q41 70 41 181v61q-331 0 -331 -186z" />
<glyph unicode="&#xe1;" horiz-adv-x="1067" d="M70 307q0 231 217 311q131 47 409 48q0 205 -198 204q-139 0 -297 -94l-15 240q213 68 344 67q233 0 340 -79q121 -92 121 -314q0 -51 -2 -229q-1 -72 -1 -130t1 -102q2 -127 10 -229h-294l-9 147h-4q-16 -72 -121 -120q-90 -43 -172 -43q-147 0 -238 88t-91 235z M365 328q0 -139 139 -140q100 0 151 84q41 70 41 181v61q-331 0 -331 -186zM391 1188l111 299h282l-204 -299h-189z" />
<glyph unicode="&#xe2;" horiz-adv-x="1071" d="M70 307q0 231 217 311q131 47 409 48q0 205 -198 204q-139 0 -297 -94l-15 240q213 68 344 67q233 0 340 -79q121 -92 121 -314q0 -51 -2 -229q-1 -72 -1 -130t1 -102q2 -127 10 -229h-294l-9 147h-4q-16 -72 -121 -120q-90 -43 -172 -43q-147 0 -238 88t-91 235z M246 1188l157 299h295l158 -299h-205l-100 176l-100 -176h-205zM365 328q0 -139 139 -140q100 0 151 84q41 70 41 181v61q-331 0 -331 -186z" />
<glyph unicode="&#xe3;" horiz-adv-x="1069" d="M70 307q0 231 217 311q131 47 409 48q0 205 -198 204q-139 0 -297 -94l-15 240q213 68 344 67q233 0 340 -79q121 -92 121 -314q0 -51 -2 -229q-1 -72 -1 -130t1 -102q2 -127 10 -229h-294l-9 147h-4q-16 -72 -121 -120q-90 -43 -172 -43q-147 0 -238 88t-91 235z M229 1217q6 96 52 165q55 84 143 84q57 0 138 -36.5t104 -36.5q45 0 55 73h151q0 -96 -47 -168q-55 -82 -147 -81q-51 0 -135 36.5t-107 36.5q-55 0 -55 -73h-152zM365 328q0 -139 139 -140q100 0 151 84q41 70 41 181v61q-331 0 -331 -186z" />
<glyph unicode="&#xe4;" horiz-adv-x="1069" d="M70 307q0 231 217 311q131 47 409 48q0 205 -198 204q-139 0 -297 -94l-15 240q213 68 344 67q233 0 340 -79q121 -92 121 -314q0 -51 -2 -229q-1 -72 -1 -130t1 -102q2 -127 10 -229h-294l-9 147h-4q-16 -72 -121 -120q-90 -43 -172 -43q-147 0 -238 88t-91 235z M254 1239v258h242v-258h-242zM365 328q0 -139 139 -140q100 0 151 84q41 70 41 181v61q-331 0 -331 -186zM606 1239v258h242v-258h-242z" />
<glyph unicode="&#xe5;" horiz-adv-x="1069" d="M70 307q0 231 217 311q131 47 409 48q0 205 -198 204q-139 0 -297 -94l-15 240q213 68 344 67q233 0 340 -79q121 -92 121 -314q0 -51 -2 -229q-1 -72 -1 -130t1 -102q2 -127 10 -229h-294l-9 147h-4q-16 -72 -121 -120q-90 -43 -172 -43q-147 0 -238 88t-91 235z M344 1384.5q0 94.5 66.5 161t161 66.5t161 -66.5t66.5 -161t-66.5 -161t-161 -66.5t-161 66.5t-66.5 161zM365 328q0 -139 139 -140q100 0 151 84q41 70 41 181v61q-331 0 -331 -186zM455 1384.5q0 -47.5 34.5 -82t81.5 -34.5t82 34.5t35 82t-35 82t-82 34.5t-81.5 -34.5 t-34.5 -82z" />
<glyph unicode="&#xe6;" horiz-adv-x="1644" d="M74 307q0 231 217 311q131 47 409 48q0 205 -198 204q-139 0 -297 -94l-15 240q213 68 345 67q211 0 305 -98q121 98 293 98q272 0 378 -188q84 -145 84 -446h-628q0 -115 73.5 -179.5t190.5 -64.5q145 0 301 84l6 -244q-166 -61 -338 -61q-303 0 -424 174 q-96 -174 -354 -174q-158 0 -250 82q-98 85 -98 241zM375 328q0 -59 35.5 -99.5t93.5 -40.5q102 0 155 97q41 76 41 188v41q-325 -6 -325 -186zM967 645h333q0 96 -32 162q-41 88 -127 88q-90 0 -135 -84q-39 -70 -39 -166z" />
<glyph unicode="&#xe7;" horiz-adv-x="905" d="M70 522q0 252 139 406.5t389 154.5q63 0 258 -51l-16 -244q-119 45 -189 46q-127 0 -192 -97q-53 -82 -53 -215q0 -131 65 -211q70 -86 197 -86q66 0 188 47l10 -243q-160 -43 -288 -45l-58 -99q31 10 70 11q76 0 124 -45.5t48 -118.5q0 -88 -82 -142q-70 -45 -164 -45 q-156 0 -219 43l39 95q74 -35 145 -35q104 0 105 86q0 31 -28 49t-60 18q-45 0 -76 -16l-45 37l98 170q-195 29 -305 184q-100 141 -100 346z" />
<glyph unicode="&#xe8;" horiz-adv-x="1060" d="M86 537q0 225 121 378q133 168 352 168q272 0 381 -190q82 -143 82 -444h-629q0 -115 74 -179.5t190 -64.5q145 0 301 84l7 -244q-166 -61 -338 -61q-262 0 -401.5 145.5t-139.5 407.5zM317 1487h283l111 -299h-189zM393 625h334q0 262 -168 262t-166 -262z" />
<glyph unicode="&#xe9;" horiz-adv-x="1060" d="M86 537q0 225 121 378q133 168 352 168q272 0 381 -190q82 -143 82 -444h-629q0 -115 74 -179.5t190 -64.5q145 0 301 84l7 -244q-166 -61 -338 -61q-262 0 -401.5 145.5t-139.5 407.5zM391 1188l111 299h282l-204 -299h-189zM393 625h334q0 262 -168 262t-166 -262z" />
<glyph unicode="&#xea;" horiz-adv-x="1073" d="M86 537q0 225 121 378q133 168 352 168q272 0 381 -190q82 -143 82 -444h-629q0 -115 74 -179.5t190 -64.5q145 0 301 84l7 -244q-166 -61 -338 -61q-262 0 -401.5 145.5t-139.5 407.5zM246 1188l157 299h295l158 -299h-205l-100 176l-100 -176h-205zM393 625h334 q0 262 -168 262t-166 -262z" />
<glyph unicode="&#xeb;" horiz-adv-x="1058" d="M86 537q0 225 121 378q133 168 352 168q272 0 381 -190q82 -143 82 -444h-629q0 -115 74 -179.5t190 -64.5q145 0 301 84l7 -244q-166 -61 -338 -61q-262 0 -401.5 145.5t-139.5 407.5zM254 1239v258h242v-258h-242zM393 625h334q0 262 -168 262t-166 -262zM606 1239v258 h242v-258h-242z" />
<glyph unicode="&#xec;" horiz-adv-x="538" d="M51 1487h283l110 -299h-188zM123 0v1067h323v-1067h-323z" />
<glyph unicode="&#xed;" horiz-adv-x="550" d="M123 0v1067h323v-1067h-323zM125 1188l111 299h282l-205 -299h-188z" />
<glyph unicode="&#xee;" horiz-adv-x="593" d="M-20 1188l157 299h295l158 -299h-205l-100 176l-101 -176h-204zM123 0v1067h323v-1067h-323z" />
<glyph unicode="&#xef;" horiz-adv-x="585" d="M-12 1239v258h241v-258h-241zM123 0v1067h323v-1067h-323zM340 1239v258h242v-258h-242z" />
<glyph unicode="&#xf0;" horiz-adv-x="1138" d="M86 537q0 213 98 366q117 180 318 180q57 0 116.5 -29.5t81.5 -78.5h5q-43 160 -162 278l-224 -106l-112 110l209 99q-80 51 -172 82l241 123q100 -27 187 -84l176 84l110 -111l-159 -76q291 -285 291 -796q0 -262 -117 -420q-131 -174 -385 -174q-242 0 -377 157 q-125 150 -125 396zM422 537q0 -332 166 -332t166 332q0 326 -166 326t-166 -326z" />
<glyph unicode="&#xf1;" horiz-adv-x="1105" d="M104 1067h295q8 -94 9 -178h4q82 195 301 194q313 0 313 -385v-698h-324v657q0 168 -124 168q-141 0 -142 -227v-598h-323v844q-1 149 -9 223zM248 1217q6 96 51 165q55 84 143 84q57 0 138.5 -36.5t103.5 -36.5q45 0 55 73h152q0 -96 -47 -168q-55 -82 -148 -81 q-51 0 -135 36.5t-106 36.5q-55 0 -56 -73h-151z" />
<glyph unicode="&#xf2;" horiz-adv-x="1124" d="M86 537q0 244 127 391q133 156 374.5 155.5t375.5 -155.5q127 -147 127 -391q0 -246 -125 -396q-135 -158 -377 -157.5t-377 157.5q-125 150 -125 396zM354 1487h283l111 -299h-189zM422 537q0 -332 166 -332t166 332q0 326 -166 326t-166 -326z" />
<glyph unicode="&#xf3;" horiz-adv-x="1126" d="M86 537q0 244 127 391q133 156 374.5 155.5t375.5 -155.5q127 -147 127 -391q0 -246 -125 -396q-135 -158 -377 -157.5t-377 157.5q-125 150 -125 396zM422 537q0 -332 166 -332t166 332q0 326 -166 326t-166 -326zM428 1188l111 299h282l-205 -299h-188z" />
<glyph unicode="&#xf4;" horiz-adv-x="1128" d="M86 537q0 244 127 391q133 156 374.5 155.5t375.5 -155.5q127 -147 127 -391q0 -246 -125 -396q-135 -158 -377 -157.5t-377 157.5q-125 150 -125 396zM250 1188l110 299h283l-205 -299h-188zM422 537q0 -332 166 -332t166 332q0 326 -166 326t-166 -326zM602 1188 l111 299h282l-204 -299h-189z" />
<glyph unicode="&#xf5;" horiz-adv-x="1128" d="M86 537q0 244 127 391q133 156 374.5 155.5t375.5 -155.5q127 -147 127 -391q0 -246 -125 -396q-135 -158 -377 -157.5t-377 157.5q-125 150 -125 396zM250 1188l110 299h283l-205 -299h-188zM422 537q0 -332 166 -332t166 332q0 326 -166 326t-166 -326zM602 1188 l111 299h282l-204 -299h-189z" />
<glyph unicode="&#xf6;" horiz-adv-x="1126" d="M86 537q0 244 127 391q133 156 374.5 155.5t375.5 -155.5q127 -147 127 -391q0 -246 -125 -396q-135 -158 -377 -157.5t-377 157.5q-125 150 -125 396zM291 1239v258h241v-258h-241zM422 537q0 -332 166 -332t166 332q0 326 -166 326t-166 -326zM643 1239v258h242v-258 h-242z" />
<glyph unicode="&#xf7;" horiz-adv-x="1126" d="M96 412v213h1037v-213h-1037zM457 110.5q0 69.5 44 113.5t113.5 44t113.5 -44t44 -113.5t-44 -113.5t-113.5 -44t-113.5 44t-44 113.5zM457 925.5q0 69.5 44 113.5t113.5 44t113.5 -44t44 -113.5t-44 -113.5t-113.5 -44t-113.5 44t-44 113.5z" />
<glyph unicode="&#xf8;" horiz-adv-x="1167" d="M86 537q0 244 127 391q133 156 375 155q182 0 307 -92l90 115l82 -62l-98 -122q121 -145 121 -385q0 -246 -125 -396q-135 -158 -377 -157q-174 0 -295 84l-103 -129l-81 61l108 137q-131 150 -131 400zM422 537q0 -80 10 -129l285 358q-41 96 -129 96q-166 1 -166 -325z M467 287q41 -82 121 -82q166 0 166 332q0 66 -9 104z" />
<glyph unicode="&#xf9;" horiz-adv-x="1105" d="M113 369v698h323v-657q0 -168 125 -168q141 0 141 227v598h324v-844q0 -150 8 -223h-295q-8 94 -8 178h-4q-82 -195 -301 -194q-313 0 -313 385zM336 1487h282l111 -299h-188z" />
<glyph unicode="&#xfa;" horiz-adv-x="1107" d="M113 369v698h323v-657q0 -168 125 -168q141 0 141 227v598h324v-844q0 -150 8 -223h-295q-8 94 -8 178h-4q-82 -195 -301 -194q-313 0 -313 385zM410 1188l110 299h283l-205 -299h-188z" />
<glyph unicode="&#xfb;" horiz-adv-x="1112" d="M113 369v698h323v-657q0 -168 125 -168q141 0 141 227v598h324v-844q0 -150 8 -223h-295q-8 94 -8 178h-4q-82 -195 -301 -194q-313 0 -313 385zM229 1188l111 299h283l-205 -299h-189zM582 1188l110 299h283l-205 -299h-188z" />
<glyph unicode="&#xfc;" horiz-adv-x="1110" d="M113 369v698h323v-657q0 -168 125 -168q141 0 141 227v598h324v-844q0 -150 8 -223h-295q-8 94 -8 178h-4q-82 -195 -301 -194q-313 0 -313 385zM272 1239v258h242v-258h-242zM625 1239v258h241v-258h-241z" />
<glyph unicode="&#xfd;" horiz-adv-x="1056" d="M10 1067h336l199 -723h4l188 723h316l-377 -1165q-53 -166 -127 -248q-94 -109 -246 -109q-104 0 -194 27l10 240q41 -25 102 -25q59 0 111.5 62.5t52.5 123.5q0 14 -4 27zM373 1188l110 299h283l-205 -299h-188z" />
<glyph unicode="&#xfe;" horiz-adv-x="1110" d="M113 -442v1978h323v-612h4q29 76 113 118q76 41 162 41q201 0 299 -198q76 -154 76 -377q0 -217 -78 -354q-96 -170 -297 -170q-205 0 -275 174h-4v-600h-323zM436 535q0 -330 162 -330q104 0 139 123q16 63 17 207q0 315 -156 315q-92 0 -133 -117q-29 -81 -29 -198z " />
<glyph unicode="&#xff;" horiz-adv-x="1081" d="M10 1067h336l199 -723h4l188 723h316l-377 -1165q-53 -166 -127 -248q-94 -109 -246 -109q-104 0 -194 27l10 240q41 -25 102 -25q59 0 111.5 62.5t52.5 123.5q0 14 -4 27zM236 1239v258h241v-258h-241zM588 1239v258h241v-258h-241z" />
<glyph unicode="&#x131;" horiz-adv-x="555" d="M123 0v1067h323v-1067h-323z" />
<glyph unicode="&#x150;" d="M94 714.5q0 317.5 142 516.5q160 223 465 223t466 -223q141 -199 141.5 -516.5t-141.5 -515.5q-162 -223 -467 -223.5t-464 223.5q-142 198 -142 515.5zM373 1516l110 299h283l-205 -299h-188zM438 714.5q0 -497.5 262 -497.5q264 0 264.5 497.5t-264.5 497.5 q-262 0 -262 -497.5zM725 1516l111 299h282l-205 -299h-188z" />
<glyph unicode="&#x151;" horiz-adv-x="1128" d="M86 537q0 244 127 391q133 156 374.5 155.5t375.5 -155.5q127 -147 127 -391q0 -246 -125 -396q-135 -158 -377 -157.5t-377 157.5q-125 150 -125 396zM250 1188l110 299h283l-205 -299h-188zM422 537q0 -332 166 -332t166 332q0 326 -166 326t-166 -326zM602 1188 l111 299h282l-204 -299h-189z" />
<glyph unicode="&#x152;" horiz-adv-x="1740" d="M74 715q0 330 157 522q170 209 492 209q61 0 181 -8t181 -8h605v-250h-480v-320h453v-250h-453v-360h506v-250h-663q-66 0 -196 -8t-195 -8q-301 0 -455 223q-133 193 -133 508zM418 715q0 -473 289 -473q106 0 167 18v909q-61 18 -167 19q-289 0 -289 -473z" />
<glyph unicode="&#x153;" horiz-adv-x="1744" d="M86 537q0 244 127 391q133 156 375 155q211 0 338 -116q127 117 307 116q272 0 379 -188q84 -145 84 -446h-629q0 -115 73.5 -179.5t190.5 -64.5q145 0 301 84l6 -244q-166 -61 -338 -61q-240 0 -374 118q-125 -119 -338 -118q-242 0 -377 157q-125 150 -125 396z M422 537q0 -332 166 -332t166 332q0 326 -166 326t-166 -326zM1061 625h340q0 262 -172 262q-170 0 -168 -262z" />
<glyph unicode="&#x170;" horiz-adv-x="1245" d="M121 518v912h336v-965q0 -231 188.5 -231.5t188.5 231.5v965h335v-912q0 -254 -136 -398.5t-388 -144.5t-388 144.5t-136 398.5zM311 1516l111 299h283l-205 -299h-189zM664 1516l110 299h283l-205 -299h-188z" />
<glyph unicode="&#x171;" horiz-adv-x="1112" d="M113 369v698h323v-657q0 -168 125 -168q141 0 141 227v598h324v-844q0 -150 8 -223h-295q-8 94 -8 178h-4q-82 -195 -301 -194q-313 0 -313 385zM229 1188l111 299h283l-205 -299h-189zM582 1188l110 299h283l-205 -299h-188z" />
<glyph unicode="&#x178;" horiz-adv-x="1189" d="M4 1430h385l229 -553l213 553h377l-434 -889v-541h-336v547zM309 1556v259h242v-259h-242zM662 1556v259h241v-259h-241z" />
<glyph unicode="&#x192;" horiz-adv-x="964" d="M-18 -406l22 218q47 -39 109 -39q92 0 120 178l111 670h-194l24 227h207l45 266q35 158 100 238q86 102 240 102q100 0 213 -43l-31 -211q-47 33 -108 33q-80 0 -119 -162l-33 -223h197l-25 -227h-209l-94 -582q-35 -215 -98 -328q-96 -166 -275 -166q-114 0 -202 49z " />
<glyph unicode="&#x2c6;" horiz-adv-x="587" d="M-78 1188l158 299h295l157 -299h-204l-101 176l-100 -176h-205z" />
<glyph unicode="&#x2da;" horiz-adv-x="516" d="M0 1384.5q0 94.5 66.5 161t161 66.5t161 -66.5t66.5 -161t-66.5 -161t-161 -66.5t-161 66.5t-66.5 161zM111 1384.5q0 -47.5 34.5 -82t81.5 -34.5t82 34.5t35 82t-35 82t-82 34.5t-81.5 -34.5t-34.5 -82z" />
<glyph unicode="&#x2dc;" horiz-adv-x="630" d="M-94 1217q6 96 51 165q55 84 143 84q57 0 138 -36.5t104 -36.5q45 0 55 73h152q0 -96 -47 -168q-55 -82 -148 -81q-51 0 -135 36.5t-106 36.5q-55 0 -56 -73h-151z" />
<glyph unicode="&#x2dd;" horiz-adv-x="673" d="M-98 1188l110 299h283l-205 -299h-188zM254 1188l111 299h282l-205 -299h-188z" />
<glyph unicode="&#x2000;" horiz-adv-x="970" />
<glyph unicode="&#x2001;" horiz-adv-x="1943" />
<glyph unicode="&#x2002;" horiz-adv-x="970" />
<glyph unicode="&#x2003;" horiz-adv-x="1943" />
<glyph unicode="&#x2004;" horiz-adv-x="647" />
<glyph unicode="&#x2005;" horiz-adv-x="485" />
<glyph unicode="&#x2006;" horiz-adv-x="323" />
<glyph unicode="&#x2007;" horiz-adv-x="323" />
<glyph unicode="&#x2008;" horiz-adv-x="241" />
<glyph unicode="&#x2009;" horiz-adv-x="387" />
<glyph unicode="&#x200a;" horiz-adv-x="106" />
<glyph unicode="&#x2010;" horiz-adv-x="690" d="M86 463v250h510v-250h-510z" />
<glyph unicode="&#x2011;" horiz-adv-x="690" d="M86 463v250h510v-250h-510z" />
<glyph unicode="&#x2012;" horiz-adv-x="690" d="M86 463v250h510v-250h-510z" />
<glyph unicode="&#x2013;" horiz-adv-x="1118" d="M0 479v221h1024v-221h-1024z" />
<glyph unicode="&#x2014;" horiz-adv-x="2142" d="M0 479v221h2048v-221h-2048z" />
<glyph unicode="&#x2018;" horiz-adv-x="516" d="M63 1004l164 532h242l-98 -532h-308z" />
<glyph unicode="&#x2019;" horiz-adv-x="505" d="M63 1004l99 532h307l-164 -532h-242z" />
<glyph unicode="&#x201a;" horiz-adv-x="534" d="M63 -225l99 532h307l-164 -532h-242z" />
<glyph unicode="&#x201c;" horiz-adv-x="980" d="M131 1004l164 532h242l-99 -532h-307zM528 1004l164 532h242l-98 -532h-308z" />
<glyph unicode="&#x201d;" horiz-adv-x="970" d="M131 1004l98 532h308l-164 -532h-242zM528 1004l99 532h307l-164 -532h-242z" />
<glyph unicode="&#x201e;" horiz-adv-x="999" d="M131 -225l98 532h308l-164 -532h-242zM528 -225l99 532h307l-164 -532h-242z" />
<glyph unicode="&#x2020;" horiz-adv-x="974" d="M106 842v241h293v347h267v-347h290v-241h-290v-842h-267v842h-293z" />
<glyph unicode="&#x2021;" horiz-adv-x="1019" d="M106 291v227h295v393h-295v228h295v291h258v-291h297v-228h-297v-393h297v-227h-297v-291h-258v291h-295z" />
<glyph unicode="&#x2022;" horiz-adv-x="925" d="M156 714.5q0 147.5 104.5 252t251.5 104.5t252.5 -104.5t105.5 -252t-105.5 -253t-252.5 -105.5t-251.5 105.5t-104.5 253z" />
<glyph unicode="&#x2026;" horiz-adv-x="1961" d="M195 0v307h294v-307h-294zM877 0v307h294v-307h-294zM1559 0v307h294v-307h-294z" />
<glyph unicode="&#x202f;" horiz-adv-x="387" />
<glyph unicode="&#x2030;" horiz-adv-x="1857" d="M68 1065q0 389 256 389t256 -389t-256 -389t-256 389zM244 1065q0 -104 6 -135q14 -90 73.5 -90t73.5 90q6 31 6 135q0 106 -4 135q-16 90 -75.5 90t-75.5 -90q-4 -29 -4 -135zM270 -68l645 1565h152l-645 -1565h-152zM766 364.5q0 389.5 256 389.5t256 -389.5 t-256 -389.5t-256 389.5zM942 365q0 -104 6 -136q14 -90 73.5 -90t74.5 90q6 31 6 136q0 106 -4 135q-16 90 -75.5 90t-76.5 -90q-4 -29 -4 -135zM1354 364.5q0 389.5 256 389.5t256 -389.5t-256 -389.5t-256 389.5zM1530 365q0 -104 6 -136q14 -90 73.5 -90t73.5 90 q6 31 7 136q0 106 -5 135q-16 90 -75.5 90t-75.5 -90q-4 -29 -4 -135z" />
<glyph unicode="&#x2039;" horiz-adv-x="583" d="M74 532l202 424h256l-184 -424l184 -423h-256z" />
<glyph unicode="&#x203a;" horiz-adv-x="643" d="M113 109l184 423l-184 424h256l202 -424l-202 -423h-256z" />
<glyph unicode="&#x2044;" horiz-adv-x="577" d="M-244 -68l645 1565h185l-645 -1565h-185z" />
<glyph unicode="&#x205f;" horiz-adv-x="485" />
<glyph unicode="&#x2122;" horiz-adv-x="2048" d="M98 1266v164h693v-164h-240v-688h-213v688h-240zM954 578v852h295l203 -533l203 533h295v-852h-197v602h-4l-221 -602h-152l-221 602h-4v-602h-197z" />
<glyph unicode="&#x2260;" horiz-adv-x="1167" d="M96 188v213h1037v-213h-1037zM96 635v213h1037v-213h-1037zM340 -221l336 1478h213l-336 -1478h-213z" />
<glyph unicode="&#xe000;" horiz-adv-x="1065" d="M0 1065h1065v-1065h-1065v1065z" />
<glyph unicode="&#xfb01;" horiz-adv-x="1304" d="M18 840v227h187q0 270 35 348q66 145 299 146q76 0 211 -25l-9 -225q-37 16 -84 16q-131 0 -131 -153v-54q2 -35 2 -53h195v-227h-195v-840h-323v840h-187zM891 0v1067h323v-1067h-323zM891 1249v287h323v-287h-323z" />
<glyph unicode="&#xfb02;" horiz-adv-x="1312" d="M18 840v227h187q0 270 35 348q66 145 299 146q76 0 211 -25l-9 -225q-37 16 -84 16q-131 0 -131 -153v-54q2 -35 2 -53h195v-227h-195v-840h-323v840h-187zM891 0v1536h323v-1536h-323z" />
</font>
</defs>
</svg>
